<svg xmlns="http://www.w3.org/2000/svg" viewBox="0 0 24 24" fill="none">
  <!-- Contenido del SVG del mono -->
  <circle cx="12" cy="9" r="6" stroke="#4F46E5" stroke-width="1.5"/>
  <circle cx="9.5" cy="7.5" r="1.5" fill="#4F46E5"/>
  <circle cx="14.5" cy="7.5" r="1.5" fill="#4F46E5"/>
  <ellipse cx="12" cy="10" rx="2" ry="1.5" fill="#4F46E5"/>
  <path d="M10 11.5C11 12.5 13 12.5 14 11.5" stroke="#4F46E5" stroke-width="1" stroke-linecap="round"/>
  <circle cx="6.5" cy="6" r="2" stroke="#4F46E5" stroke-width="1"/>
  <circle cx="17.5" cy="6" r="2" stroke="#4F46E5" stroke-width="1"/>
  <path d="M9 15C9 18 9 21 12 21C15 21 15 18 15 15" stroke="#4F46E5" stroke-width="1.5" stroke-linecap="round"/>
  <path d="M17 14C19 13 21 15 21 17" stroke="#4F46E5" stroke-width="1.5" stroke-linecap="round"/>
  <path d="M7 13C5 14 3 13 2 11" stroke="#4F46E5" stroke-width="1.5" stroke-linecap="round"/>
  <path d="M17 13C19 14 21 13 22 11" stroke="#4F46E5" stroke-width="1.5" stroke-linecap="round"/>
</svg>